User Type,Username,Date,Text
,MinxMwahzelle,2012-06-07T13:09Z,THAT many seeders and no comments on quality?? Come on people!  Fuck!
,kenshinsars,2012-06-07T22:15Z,"@MinxMwahzelle   is a BRrip, quality cant be no worse than 9/9. Fuck!"
,kenshinsars,2012-06-07T22:18Z,"but heres whats listed in the readme.txt
General

Complete name                    : John Carter[2012]ENG[BRRip]XviD-{RedDragon}.mp4
Format                           : MPEG-4
Format profile                   : Base Media / Version 2
Codec ID                         : mp42
File size                        : 749 MiB
Duration                         : 2h 12mn
Overall bit rate                 : 793 Kbps
IMDB Rating                      : 6.9/10
IMDB Link                        : http://www.imdb.com/title/tt0401729/


Video.

ID                               : 1
Format                           : MPEG-4 Visual
Format profile                   : Simple@L1
Format settings, BVOP            : No
Format settings, QPel            : No
Format settings, GMC             : No warppoints
Format settings, Matrix          : Default (H.263)
Codec ID                         : 20
Duration                         : 2h 12mn
Bit rate mode                    : Variable
Bit rate                         : 629 Kbps
Maximum bit rate                 : 4,974 Kbps
Width                            : 608 pixels
Height                           : 256 pixels
Display aspect ratio             : 2.35:1
Frame rate mode                  : Variable
Frame rate                       : 23.976 fps
Minimum frame rate               : 23.974 fps
Maximum frame rate               : 23.981 fps
Color space                      : YUV
Chroma subsampling               : 4:2:0
Bit depth                        : 8 bits
Scan type                        : Progressive
Bits/(Pixel*Frame)               : 0.169
Stream size                      : 594 MiB (79%)
Writing library                  : Lavc52.94.3
Encoded date                     : UTC 2012-06-02 13:44:35
Tagged date                      : UTC 2012-06-02 13:51:50


Audio.

ID                               : 2
Format                           : AAC
Format/Info                      : Advanced Audio Codec
Format version                   : Version 4
Format profile                   : LC
Format settings, SBR             : No
Codec ID                         : 40
Duration                         : 2h 12mn
Bit rate mode                    : Variable
Bit rate                         : 160 Kbps
Maximum bit rate                 : 185 Kbps
Channel(s)                       : 2 channels
Channel positions                : Front: L R
Sampling rate                    : 48.0 KHz
Stream size                      : 151 MiB (20%)
Encoded date                     : UTC 2012-06-02 13:44:35
Tagged date                      : UTC 2012-06-02 13:51:49"
,kenshinsars,2012-06-08T00:49Z,"i was wrong, looks like a TS, A8/V6"
,turul123,2012-06-09T16:51Z,"Piece of shit 750 mb 
Format profile                   : Simple@L1
Format settings, Matrix          : Default (H.263)
Overall bit rate                 : 793 Kbps
The picture is wrongest than 10 years old movie
The youtube is better
My opinion: Dont't download

V:5
A:6
very shit"
